<svg width="80" height="40" viewBox="0 0 80 40" fill="none" xmlns="http://www.w3.org/2000/svg">
<rect width="80" height="40" rx="20" fill="#404445"/>
<circle cx="60" cy="20" r="17" fill="#674188"/>
<path d="M69 20.79C68.8427 22.4922 68.2039 24.1144 67.1582 25.4668C66.1126 26.8192 64.7035 27.8458 63.0957 28.4265C61.4879 29.0073 59.748 29.1181 58.0795 28.7461C56.411 28.3741 54.883 27.5345 53.6742 26.3258C52.4654 25.117 51.6259 23.589 51.2539 21.9205C50.8819 20.252 50.9927 18.5121 51.5735 16.9043C52.1542 15.2965 53.1808 13.8874 54.5332 12.8418C55.8856 11.7961 57.5078 11.1573 59.21 11C58.2134 12.3483 57.7338 14.0094 57.8585 15.6814C57.9832 17.3534 58.7039 18.9251 59.8894 20.1106C61.0749 21.2961 62.6466 22.0168 64.3186 22.1415C65.9905 22.2662 67.6517 21.7866 69 20.79Z" stroke="#C3ACD0" stroke-width="2" stroke-linecap="round" stroke-linejoin="round"/>
</svg>
