<svg width="80" height="40" viewBox="0 0 80 40" fill="none" xmlns="http://www.w3.org/2000/svg">
<rect width="80" height="40" rx="20" fill="#FFFBF5"/>
<circle cx="20" cy="20" r="17" fill="#C3ACD0"/>
<g clip-path="url(#clip0_44_106)">
<path d="M20 25C22.7614 25 25 22.7614 25 20C25 17.2386 22.7614 15 20 15C17.2386 15 15 17.2386 15 20C15 22.7614 17.2386 25 20 25Z" stroke="#674188" stroke-width="2" stroke-linecap="round" stroke-linejoin="round"/>
<path d="M20 9V11" stroke="#674188" stroke-width="2" stroke-linecap="round" stroke-linejoin="round"/>
<path d="M20 29V31" stroke="#674188" stroke-width="2" stroke-linecap="round" stroke-linejoin="round"/>
<path d="M12.22 12.22L13.64 13.64" stroke="#674188" stroke-width="2" stroke-linecap="round" stroke-linejoin="round"/>
<path d="M26.36 26.36L27.78 27.78" stroke="#674188" stroke-width="2" stroke-linecap="round" stroke-linejoin="round"/>
<path d="M9 20H11" stroke="#674188" stroke-width="2" stroke-linecap="round" stroke-linejoin="round"/>
<path d="M29 20H31" stroke="#674188" stroke-width="2" stroke-linecap="round" stroke-linejoin="round"/>
<path d="M12.22 27.78L13.64 26.36" stroke="#674188" stroke-width="2" stroke-linecap="round" stroke-linejoin="round"/>
<path d="M26.36 13.64L27.78 12.22" stroke="#674188" stroke-width="2" stroke-linecap="round" stroke-linejoin="round"/>
</g>
<defs>
<clipPath id="clip0_44_106">
<rect width="24" height="24" fill="white" transform="translate(8 8)"/>
</clipPath>
</defs>
</svg>
