<svg width="112" height="74" viewBox="0 0 112 74" fill="none" xmlns="http://www.w3.org/2000/svg">
<path d="M85.4612 28.25H79.2774C77.4413 21.9106 73.6473 16.1574 68.3265 11.6442C63.0057 7.13101 56.3715 4.03871 49.1778 2.71871C41.984 1.3987 34.5191 1.90393 27.6314 4.17696C20.7436 6.45 14.7092 10.3997 10.2137 15.5773C5.71829 20.7549 2.94209 26.9527 2.20061 33.4665C1.45914 39.9804 2.7821 46.549 6.01919 52.4261C9.25627 58.3031 14.2777 63.253 20.5128 66.7131C26.7479 70.1732 33.9468 72.0049 41.2914 72H85.4612C91.9693 72 98.2108 69.6953 102.813 65.593C107.415 61.4906 110 55.9266 110 50.125C110 44.3234 107.415 38.7594 102.813 34.657C98.2108 30.5547 91.9693 28.25 85.4612 28.25Z" stroke="url(#paint0_linear_40_34)" stroke-width="4" stroke-linecap="round" stroke-linejoin="round"/>
<path d="M15.416 31.168C14.968 31.168 14.562 31.084 14.198 30.916C13.8433 30.7387 13.5587 30.468 13.344 30.104C13.1293 29.7307 13.022 29.2547 13.022 28.676V23.86H14.31V28.9C14.31 29.152 14.3613 29.3667 14.464 29.544C14.5667 29.7213 14.702 29.852 14.87 29.936C15.038 30.02 15.2153 30.062 15.402 30.062C15.5887 30.062 15.766 30.02 15.934 29.936C16.102 29.8427 16.2373 29.712 16.34 29.544C16.452 29.3667 16.508 29.152 16.508 28.9V26.128C16.508 25.5773 16.6107 25.1247 16.816 24.77C17.0213 24.406 17.3013 24.1353 17.656 23.958C18.0107 23.7807 18.412 23.692 18.86 23.692C19.308 23.692 19.7093 23.7807 20.064 23.958C20.4187 24.1353 20.6987 24.406 20.904 24.77C21.1093 25.1247 21.212 25.5773 21.212 26.128V28.9C21.212 29.152 21.2633 29.3667 21.366 29.544C21.4687 29.712 21.604 29.8427 21.772 29.936C21.94 30.02 22.122 30.062 22.318 30.062C22.514 30.062 22.6913 30.02 22.85 29.936C23.0087 29.8427 23.1393 29.712 23.242 29.544C23.3447 29.3667 23.396 29.152 23.396 28.9V23.86H24.698V28.676C24.698 29.2547 24.5907 29.7307 24.376 30.104C24.1613 30.468 23.872 30.7387 23.508 30.916C23.1533 31.084 22.7567 31.168 22.318 31.168C21.8887 31.168 21.492 31.084 21.128 30.916C20.764 30.7387 20.47 30.468 20.246 30.104C20.0313 29.7307 19.924 29.2547 19.924 28.676V25.932C19.924 25.6707 19.8727 25.456 19.77 25.288C19.6673 25.12 19.5367 24.9987 19.378 24.924C19.2193 24.84 19.0467 24.798 18.86 24.798C18.6733 24.798 18.496 24.84 18.328 24.924C18.1693 24.9987 18.0387 25.12 17.936 25.288C17.8427 25.456 17.796 25.6707 17.796 25.932V28.676C17.796 29.2547 17.684 29.7307 17.46 30.104C17.2453 30.468 16.956 30.7387 16.592 30.916C16.2373 31.084 15.8453 31.168 15.416 31.168ZM30.3746 31C29.5906 31 28.8952 30.8553 28.2886 30.566C27.6819 30.2673 27.2059 29.852 26.8606 29.32C26.5246 28.7787 26.3566 28.1487 26.3566 27.43C26.3566 26.7207 26.5012 26.086 26.7906 25.526C27.0799 24.9567 27.4812 24.5087 27.9946 24.182C28.5079 23.8553 29.1052 23.692 29.7866 23.692C30.5239 23.692 31.1352 23.8507 31.6206 24.168C32.1152 24.4853 32.4839 24.9147 32.7266 25.456C32.9692 25.988 33.0906 26.5853 33.0906 27.248C33.0906 27.3507 33.0859 27.458 33.0766 27.57C33.0766 27.682 33.0672 27.78 33.0486 27.864H27.7286C27.7752 28.3027 27.9199 28.676 28.1626 28.984C28.4052 29.2827 28.7132 29.5113 29.0866 29.67C29.4692 29.8193 29.8892 29.894 30.3466 29.894H32.2086V31H30.3746ZM27.7146 26.954H31.7886C31.7886 26.7767 31.7699 26.59 31.7326 26.394C31.6952 26.1887 31.6299 25.9927 31.5366 25.806C31.4432 25.61 31.3172 25.4373 31.1586 25.288C31.0092 25.1293 30.8179 25.0033 30.5846 24.91C30.3606 24.8167 30.0946 24.77 29.7866 24.77C29.4599 24.77 29.1706 24.8353 28.9186 24.966C28.6759 25.0873 28.4659 25.2553 28.2886 25.47C28.1112 25.6753 27.9759 25.9087 27.8826 26.17C27.7892 26.4313 27.7332 26.6927 27.7146 26.954ZM37.7009 31.168C37.0103 31.168 36.4129 31.0047 35.9089 30.678C35.4049 30.342 35.0176 29.8893 34.7469 29.32C34.4763 28.7507 34.3409 28.1207 34.3409 27.43C34.3409 26.73 34.4903 26.1 34.7889 25.54C35.0876 24.9707 35.5169 24.5227 36.0769 24.196C36.6369 23.86 37.3089 23.692 38.0929 23.692C38.8489 23.692 39.4976 23.8553 40.0389 24.182C40.5803 24.5087 40.9956 24.952 41.2849 25.512C41.5836 26.072 41.7329 26.6973 41.7329 27.388V31H40.4309V29.544H40.4029C40.2629 29.8147 40.0716 30.076 39.8289 30.328C39.5956 30.5707 39.3016 30.7713 38.9469 30.93C38.5923 31.0887 38.1769 31.168 37.7009 31.168ZM38.0369 30.062C38.5036 30.062 38.9143 29.95 39.2689 29.726C39.6329 29.4927 39.9129 29.1753 40.1089 28.774C40.3143 28.3633 40.4169 27.906 40.4169 27.402C40.4169 26.9073 40.3189 26.464 40.1229 26.072C39.9363 25.68 39.6656 25.372 39.3109 25.148C38.9563 24.9147 38.5409 24.798 38.0649 24.798C37.5609 24.798 37.1269 24.9147 36.7629 25.148C36.4083 25.3813 36.1329 25.6987 35.9369 26.1C35.7503 26.492 35.6569 26.94 35.6569 27.444C35.6569 27.9293 35.7503 28.3727 35.9369 28.774C36.1236 29.166 36.3943 29.4787 36.7489 29.712C37.1036 29.9453 37.5329 30.062 38.0369 30.062ZM46.2197 31C45.5851 31 45.0857 30.818 44.7217 30.454C44.3671 30.09 44.1897 29.5953 44.1897 28.97V22.068H45.4777V28.886C45.4777 29.194 45.5617 29.4413 45.7297 29.628C45.9071 29.8053 46.1497 29.894 46.4577 29.894H47.8997V31H46.2197ZM42.9577 24.966V23.86H47.9277V24.966H42.9577ZM49.4849 31V20.78H50.7729V24.784C51.0622 24.4107 51.4122 24.1353 51.8229 23.958C52.2429 23.7807 52.6769 23.692 53.1249 23.692C53.7596 23.692 54.3102 23.8273 54.7769 24.098C55.2436 24.3593 55.6076 24.728 55.8689 25.204C56.1302 25.68 56.2609 26.2353 56.2609 26.87V31H54.9729V26.884C54.9729 26.4547 54.8749 26.086 54.6789 25.778C54.4829 25.4607 54.2216 25.218 53.8949 25.05C53.5776 24.882 53.2369 24.798 52.8729 24.798C52.5089 24.798 52.1682 24.882 51.8509 25.05C51.5336 25.2087 51.2722 25.442 51.0669 25.75C50.8709 26.058 50.7729 26.4267 50.7729 26.856V31H49.4849ZM61.9293 31C61.1453 31 60.4499 30.8553 59.8433 30.566C59.2366 30.2673 58.7606 29.852 58.4153 29.32C58.0793 28.7787 57.9113 28.1487 57.9113 27.43C57.9113 26.7207 58.0559 26.086 58.3453 25.526C58.6346 24.9567 59.0359 24.5087 59.5493 24.182C60.0626 23.8553 60.6599 23.692 61.3413 23.692C62.0786 23.692 62.6899 23.8507 63.1753 24.168C63.6699 24.4853 64.0386 24.9147 64.2812 25.456C64.5239 25.988 64.6453 26.5853 64.6453 27.248C64.6453 27.3507 64.6406 27.458 64.6313 27.57C64.6313 27.682 64.6219 27.78 64.6033 27.864H59.2833C59.3299 28.3027 59.4746 28.676 59.7173 28.984C59.9599 29.2827 60.2679 29.5113 60.6413 29.67C61.0239 29.8193 61.4439 29.894 61.9013 29.894H63.7633V31H61.9293ZM59.2693 26.954H63.3433C63.3433 26.7767 63.3246 26.59 63.2873 26.394C63.2499 26.1887 63.1846 25.9927 63.0913 25.806C62.9979 25.61 62.8719 25.4373 62.7133 25.288C62.5639 25.1293 62.3726 25.0033 62.1393 24.91C61.9153 24.8167 61.6493 24.77 61.3413 24.77C61.0146 24.77 60.7253 24.8353 60.4733 24.966C60.2306 25.0873 60.0206 25.2553 59.8433 25.47C59.6659 25.6753 59.5306 25.9087 59.4373 26.17C59.3439 26.4313 59.2879 26.6927 59.2693 26.954ZM66.2456 31V25.89C66.2456 25.2553 66.423 24.7607 66.7776 24.406C67.1416 24.042 67.641 23.86 68.2756 23.86H69.7456V24.966H68.5136C68.2056 24.966 67.963 25.0547 67.7856 25.232C67.6176 25.4093 67.5336 25.6567 67.5336 25.974V31H66.2456Z" fill="url(#paint1_linear_40_34)" style="mix-blend-mode:darken"/>
<path d="M25.54 56V47.97C25.54 46.9727 25.8187 46.1953 26.376 45.638C26.948 45.066 27.7327 44.78 28.73 44.78H31.04V46.518H29.104C28.62 46.518 28.2387 46.6573 27.96 46.936C27.696 47.2147 27.564 47.6033 27.564 48.102V56H25.54ZM38.6087 56C37.3767 56 36.284 55.7727 35.3307 55.318C34.3774 54.8487 33.6294 54.196 33.0867 53.36C32.5587 52.5093 32.2947 51.5193 32.2947 50.39C32.2947 49.2753 32.522 48.278 32.9767 47.398C33.4314 46.5033 34.062 45.7993 34.8687 45.286C35.6754 44.7727 36.614 44.516 37.6847 44.516C38.8434 44.516 39.804 44.7653 40.5667 45.264C41.344 45.7627 41.9234 46.4373 42.3047 47.288C42.686 48.124 42.8767 49.0627 42.8767 50.104C42.8767 50.2653 42.8694 50.434 42.8547 50.61C42.8547 50.786 42.84 50.94 42.8107 51.072H34.4507C34.524 51.7613 34.7514 52.348 35.1327 52.832C35.514 53.3013 35.998 53.6607 36.5847 53.91C37.186 54.1447 37.846 54.262 38.5647 54.262H41.4907V56H38.6087ZM34.4287 49.642H40.8307C40.8307 49.3633 40.8014 49.07 40.7427 48.762C40.684 48.4393 40.5814 48.1313 40.4347 47.838C40.288 47.53 40.09 47.2587 39.8407 47.024C39.606 46.7747 39.3054 46.5767 38.9387 46.43C38.5867 46.2833 38.1687 46.21 37.6847 46.21C37.1714 46.21 36.7167 46.3127 36.3207 46.518C35.9394 46.7087 35.6094 46.9727 35.3307 47.31C35.052 47.6327 34.8394 47.9993 34.6927 48.41C34.546 48.8207 34.458 49.2313 34.4287 49.642ZM51.1336 44.516C51.9842 44.516 52.7616 44.6553 53.4656 44.934C54.1696 45.198 54.7782 45.594 55.2916 46.122C55.8049 46.65 56.2009 47.288 56.4796 48.036C56.7729 48.7693 56.9196 49.598 56.9196 50.522C56.9196 51.6807 56.6776 52.6927 56.1936 53.558C55.7242 54.4233 55.0789 55.0907 54.2576 55.56C53.4362 56.0293 52.5049 56.264 51.4636 56.264C50.8916 56.264 50.3416 56.1687 49.8136 55.978C49.3002 55.7873 48.8382 55.5233 48.4276 55.186C48.0316 54.834 47.7089 54.438 47.4596 53.998H47.4156V60.84H45.3916V50.456C45.3916 49.1947 45.6409 48.124 46.1396 47.244C46.6529 46.364 47.3422 45.6893 48.2076 45.22C49.0729 44.7507 50.0482 44.516 51.1336 44.516ZM51.1336 46.254C50.4589 46.254 49.8356 46.4227 49.2636 46.76C48.7062 47.0973 48.2589 47.574 47.9216 48.19C47.5989 48.806 47.4376 49.532 47.4376 50.368C47.4376 51.2187 47.5989 51.9593 47.9216 52.59C48.2589 53.206 48.7062 53.6827 49.2636 54.02C49.8356 54.3573 50.4662 54.526 51.1556 54.526C51.8596 54.526 52.4902 54.35 53.0476 53.998C53.6049 53.646 54.0449 53.162 54.3676 52.546C54.7049 51.93 54.8736 51.2113 54.8736 50.39C54.8736 49.5393 54.7049 48.806 54.3676 48.19C54.0302 47.574 53.5756 47.0973 53.0036 46.76C52.4462 46.4227 51.8229 46.254 51.1336 46.254ZM64.7883 56.264C63.6443 56.264 62.6323 56.0073 61.7523 55.494C60.8723 54.966 60.1757 54.262 59.6623 53.382C59.149 52.4873 58.8923 51.49 58.8923 50.39C58.8923 49.29 59.149 48.3 59.6623 47.42C60.1757 46.5253 60.8723 45.8213 61.7523 45.308C62.6323 44.78 63.6443 44.516 64.7883 44.516C65.9323 44.516 66.9443 44.78 67.8243 45.308C68.719 45.8213 69.4157 46.518 69.9143 47.398C70.4277 48.278 70.6843 49.2753 70.6843 50.39C70.6843 51.49 70.4277 52.4873 69.9143 53.382C69.4157 54.262 68.719 54.966 67.8243 55.494C66.9443 56.0073 65.9323 56.264 64.7883 56.264ZM64.7883 54.526C65.5657 54.526 66.2403 54.3427 66.8123 53.976C67.3843 53.6093 67.8317 53.118 68.1543 52.502C68.477 51.8713 68.6383 51.1673 68.6383 50.39C68.6383 49.6127 68.477 48.916 68.1543 48.3C67.8317 47.6693 67.3843 47.1707 66.8123 46.804C66.2403 46.4373 65.5657 46.254 64.7883 46.254C64.0257 46.254 63.351 46.4373 62.7643 46.804C62.1923 47.1707 61.745 47.6693 61.4223 48.3C61.0997 48.916 60.9383 49.6127 60.9383 50.39C60.9383 51.1673 61.0997 51.8713 61.4223 52.502C61.745 53.118 62.1923 53.6093 62.7643 53.976C63.351 54.3427 64.0257 54.526 64.7883 54.526ZM73.2138 56V47.97C73.2138 46.9727 73.4925 46.1953 74.0498 45.638C74.6218 45.066 75.4065 44.78 76.4038 44.78H78.7138V46.518H76.7778C76.2938 46.518 75.9125 46.6573 75.6338 46.936C75.3698 47.2147 75.2378 47.6033 75.2378 48.102V56H73.2138ZM84.8422 56C83.8449 56 83.0602 55.714 82.4882 55.142C81.9309 54.57 81.6522 53.7927 81.6522 52.81V41.964H83.6762V52.678C83.6762 53.162 83.8082 53.5507 84.0722 53.844C84.3509 54.1227 84.7322 54.262 85.2162 54.262H87.4822V56H84.8422ZM79.7162 46.518V44.78H87.5262V46.518H79.7162Z" fill="url(#paint2_linear_40_34)" style="mix-blend-mode:darken"/>
<defs>
<linearGradient id="paint0_linear_40_34" x1="56" y1="2" x2="56" y2="72" gradientUnits="userSpaceOnUse">
<stop stop-color="#4F729A"/>
<stop offset="0.5" stop-color="#4F729A" stop-opacity="0.8"/>
<stop offset="1" stop-color="#674188" stop-opacity="0.75"/>
</linearGradient>
<linearGradient id="paint1_linear_40_34" x1="41" y1="15" x2="41" y2="37" gradientUnits="userSpaceOnUse">
<stop offset="0.250804" stop-color="#4F729A"/>
<stop offset="0.615402" stop-color="#674188" stop-opacity="0.84"/>
<stop offset="1" stop-color="#674188" stop-opacity="0.98"/>
</linearGradient>
<linearGradient id="paint2_linear_40_34" x1="56.5" y1="31" x2="56.5" y2="66" gradientUnits="userSpaceOnUse">
<stop offset="0.344557" stop-color="#4F729A"/>
<stop offset="0.667487" stop-color="#674188" stop-opacity="0.84"/>
<stop offset="1" stop-color="#674188" stop-opacity="0.98"/>
</linearGradient>
</defs>
</svg>
